<?xml version="1.0" standalone="no"?>
<!DOCTYPE svg PUBLIC "-//W3C//DTD SVG 20010904//EN"
 "http://www.w3.org/TR/2001/REC-SVG-20010904/DTD/svg10.dtd">
<svg version="1.0" xmlns="http://www.w3.org/2000/svg"
 width="512.000000pt" height="512.000000pt" viewBox="0 0 512.000000 512.000000"
 preserveAspectRatio="xMidYMid meet">

<g transform="translate(0.000000,512.000000) scale(0.100000,-0.100000)"
fill="#000000" stroke="none">
<path d="M2605 5111 c-33 -14 -47 -36 -188 -306 -151 -289 -243 -483 -340
-715 -116 -280 -237 -647 -237 -718 0 -63 68 -122 124 -108 59 15 276 209 404
361 l75 89 -7 -194 c-4 -107 -16 -366 -26 -575 -35 -680 -42 -979 -37 -1415 5
-450 17 -633 63 -960 32 -226 88 -505 109 -536 19 -29 55 -39 92 -27 42 14 54
47 43 123 -18 133 -40 404 -56 700 -21 387 -15 1115 15 1985 12 336 24 688 27
782 5 136 9 171 19 165 7 -4 97 -83 200 -177 232 -210 251 -225 289 -225 42 0
94 34 102 66 13 52 -34 336 -96 574 -84 324 -204 626 -382 958 -51 96 -79 137
-99 148 -31 15 -63 17 -94 5z m217 -721 c71 -178 142 -407 173 -558 9 -46 15
-85 13 -87 -2 -2 -76 64 -165 146 -89 82 -169 149 -178 149 -9 0 -28 9 -42 20
-18 14 -41 20 -73 20 -58 0 -94 -31 -104 -88 -5 -31 -28 -60 -156 -187 -82
-82 -150 -147 -150 -143 0 4 21 62 46 130 78 211 190 467 326 740 l130 263 55
-115 c30 -63 86 -194 125 -290z"/>
</g>
</svg>
